<svg xmlns="http://www.w3.org/2000/svg" width="23.172" height="15.456" viewBox="0 0 23.172 15.456">
    <path id="Icon_ionic-ios-arrow-round-forward" data-name="Icon ionic-ios-arrow-round-forward" d="M22.014,11.525a.949.949,0,0,0-.008,1.369l4.682,4.531H8.868a.968.968,0,1,0,0,1.934H26.681L22,23.891a.956.956,0,0,0,.008,1.369,1.022,1.022,0,0,0,1.409-.007l6.346-6.175h0a1.084,1.084,0,0,0,.208-.305.9.9,0,0,0,.077-.372.953.953,0,0,0-.285-.677l-6.346-6.175A1,1,0,0,0,22.014,11.525Z" transform="translate(-7.375 -10.662)" fill="#4e75e0" stroke="#4e75e0" stroke-width="1"/>
</svg>
