<svg xmlns="http://www.w3.org/2000/svg" width="18.45" height="12.389" viewBox="0 0 18.45 12.389">
    <path id="Icon_ionic-ios-arrow-round-forward" data-name="Icon ionic-ios-arrow-round-forward" d="M19,11.467A.747.747,0,0,0,19,12.544l3.685,3.566H8.657a.762.762,0,1,0,0,1.522h14.02L18.991,21.2A.752.752,0,0,0,19,22.276a.8.8,0,0,0,1.109-.006L25.1,17.41h0a.853.853,0,0,0,.164-.24.705.705,0,0,0,.061-.293.75.75,0,0,0-.224-.533l-4.994-4.86A.791.791,0,0,0,19,11.467Z" transform="translate(-7.375 -10.675)" fill="#4e75e0" stroke="#3f71f7" stroke-width="1"/>
</svg>
