<svg width="45" height="45" viewBox="0 0 45 45" fill="none" xmlns="http://www.w3.org/2000/svg">
<circle cx="22.145" cy="22.145" r="21.645" stroke="#4475F6"/>
<path d="M33 16.9506C32.2483 17.2767 31.4534 17.4923 30.64 17.5906C31.4982 17.0779 32.1413 16.2714 32.45 15.3206C31.6436 15.8007 30.7608 16.1389 29.84 16.3206C29.2245 15.6532 28.405 15.2089 27.5098 15.0575C26.6147 14.906 25.6945 15.056 24.8938 15.4838C24.093 15.9116 23.4569 16.5931 23.0852 17.4214C22.7135 18.2497 22.6273 19.178 22.84 20.0606C21.2094 19.9781 19.6144 19.5536 18.1587 18.8145C16.7029 18.0754 15.4188 17.0383 14.39 15.7706C14.0291 16.4008 13.8395 17.1144 13.84 17.8406C13.8387 18.515 14.0042 19.1792 14.3218 19.7742C14.6393 20.3691 15.099 20.8763 15.66 21.2506C15.008 21.2329 14.3699 21.0579 13.8 20.7406V20.7906C13.8049 21.7355 14.136 22.6497 14.7373 23.3786C15.3386 24.1074 16.1733 24.6062 17.1 24.7906C16.7433 24.8992 16.3729 24.9564 16 24.9606C15.7419 24.9576 15.4844 24.9342 15.23 24.8906C15.4939 25.7034 16.0046 26.4137 16.6911 26.9228C17.3775 27.4318 18.2056 27.7142 19.06 27.7306C17.6172 28.8659 15.8359 29.4855 14 29.4906C13.6657 29.4917 13.3317 29.4717 13 29.4306C14.8744 30.6409 17.0588 31.2833 19.29 31.2806C20.8297 31.2966 22.3571 31.0056 23.7831 30.4247C25.2091 29.8437 26.505 28.9845 27.5952 27.8971C28.6854 26.8097 29.548 25.516 30.1326 24.0915C30.7172 22.667 31.012 21.1403 31 19.6006C31 19.4306 31 19.2506 31 19.0706C31.7847 18.4854 32.4615 17.768 33 16.9506Z" fill="#3D99DD"/>
</svg>
