<svg width="45" height="45" viewBox="0 0 45 45" fill="none" xmlns="http://www.w3.org/2000/svg">
<circle cx="22.145" cy="22.145" r="21.645" stroke="#4475F6"/>
<path fill-rule="evenodd" clip-rule="evenodd" d="M19.9813 22.0686V30.765C19.9813 30.8825 20.0867 31 20.2342 31H23.7119C23.8384 31 23.9649 30.9021 23.9649 30.765V21.9119H26.4731C26.5995 21.9119 26.7049 21.8139 26.726 21.6964L26.9368 19.0522C26.9578 18.9151 26.8314 18.7976 26.6838 18.7976H23.9438V16.9173C23.9438 16.4668 24.3232 16.1143 24.808 16.1143H26.7471C26.8735 16.1143 27 16.0163 27 15.8792V13.235C27 13.1175 26.8946 13 26.7471 13H23.459C21.541 13 19.9813 14.4494 19.9813 16.2318V18.7976H18.2529C18.1265 18.7976 18 18.8955 18 19.0326V21.6964C18 21.8139 18.1054 21.9314 18.2529 21.9314H19.9813V22.0686Z" fill="#3D99DD"/>
</svg>
