<svg xmlns="http://www.w3.org/2000/svg" width="33.86" height="33.86" viewBox="0 0 33.86 33.86">
  <path id="Icon_material-pause-circle-outline" data-name="Icon material-pause-circle-outline" d="M14.5,26h3.286V12.858H14.5ZM19.43,3A16.43,16.43,0,1,0,35.86,19.43,16.436,16.436,0,0,0,19.43,3Zm0,29.574a13.144,13.144,0,1,1,0-26.288,13.59,13.59,0,0,1,5.818,1.36A12.986,12.986,0,0,1,32.574,19.43,13.161,13.161,0,0,1,19.43,32.574ZM21.073,26h3.286V12.858H21.073Z" transform="translate(-2.5 -2.5)" fill="none" stroke="currentColor" stroke-width="1"/>
</svg>
