<svg viewBox="0 0 27 24" fill="none" xmlns="http://www.w3.org/2000/svg">
<path d="M5.25466 23.3465C4.78773 23.3465 4.20406 23.2298 3.73713 23.1131C3.2702 22.9963 3.03674 22.7629 2.80327 22.5294L2.68654 22.4127C2.56981 22.2959 2.45307 22.0625 2.45307 21.9457C2.45307 21.7123 2.56981 21.5955 2.80327 21.4788C3.73713 21.0119 4.55426 20.1947 5.02119 19.2609C5.02119 19.1442 5.02119 19.0274 5.13792 18.9107C1.86941 16.9262 0.00168782 13.7745 0.00168782 10.5059C-0.115045 4.66931 5.83832 0 13.1925 0C20.5466 0 26.5 4.66931 26.5 10.5059C26.5 16.3426 20.5466 21.1286 13.1925 21.1286C12.4921 21.1286 11.675 21.1286 10.9746 21.0119C9.22357 22.5294 7.23911 23.3465 5.25466 23.3465ZM4.08733 22.0625C6.07179 22.5294 8.40644 21.7123 10.5076 19.9613C10.5076 19.8446 10.7411 19.7278 10.8578 19.8446C11.5582 19.9613 12.3753 19.9613 13.1925 19.9613C19.8462 19.9613 25.3327 15.7589 25.3327 10.5059C25.3327 5.25297 19.8462 1.16733 13.1925 1.16733C6.53872 1.16733 1.05228 5.3697 1.05228 10.5059C1.05228 13.541 2.92 16.3426 6.07179 18.0936C6.30525 18.2103 6.42198 18.5605 6.30525 18.794C6.30525 19.1442 6.18852 19.4944 5.95505 19.8446C5.48812 20.7784 4.78773 21.4788 4.08733 22.0625Z" fill="#0380DB"/>
</svg>
