<svg xmlns="http://www.w3.org/2000/svg" width="45.294" height="45.294" viewBox="0 0 45.294 45.294">
  <g id="Group_460" data-name="Group 460" transform="translate(-51.5 -1499.24)">
    <g id="Group_463" data-name="Group 463" transform="translate(90.318 662)">
      <circle id="Ellipse_64" data-name="Ellipse 64" cx="22.147" cy="22.147" r="22.147" transform="translate(-38.318 837.74)" fill="none" stroke="#4475f6" stroke-width="1"/>
      <g id="Group_459" data-name="Group 459" transform="translate(7401 88)">
        <path id="Path_577" data-name="Path 577" d="M92.347,18.821V16.273H99.4a6.812,6.812,0,0,1,.117,1.232,6.871,6.871,0,0,1-7.169,7.262,7.432,7.432,0,1,1,0-14.864,7.177,7.177,0,0,1,5,1.943l-2.027,1.943a4.213,4.213,0,0,0-2.976-1.147,4.693,4.693,0,0,0,0,9.385,4.027,4.027,0,0,0,4.235-3.206Zm13.869-2.546h2.134V18.4h-2.134v2.123h-2.134V18.4h-2.134V16.275h2.134V14.151h2.134Z" transform="translate(-7513.889 755.098)" fill="#3d99dd" fill-rule="evenodd"/>
      </g>
    </g>
  </g>
</svg>
