<svg xmlns="http://www.w3.org/2000/svg" width="45.294" height="45.294" viewBox="0 0 45.294 45.294">
    <g id="Group_900" data-name="Group 900" transform="translate(0.875 4.124)">
        <circle id="Ellipse_64" data-name="Ellipse 64" cx="22.147" cy="22.147" r="22.147" transform="translate(-0.375 -3.624)" fill="rgba(0,0,0,0)" stroke="#2987cc" stroke-width="1"/>
        <path id="Icon_awesome-instagram" data-name="Icon awesome-instagram" d="M11.746,7.9a5.959,5.959,0,1,0,6.023,5.959A5.982,5.982,0,0,0,11.746,7.9Zm0,9.832a3.874,3.874,0,1,1,3.916-3.874A3.9,3.9,0,0,1,11.746,17.732ZM19.421,7.656a1.4,1.4,0,1,1-1.4-1.39A1.394,1.394,0,0,1,19.421,7.656ZM23.41,9.066a6.837,6.837,0,0,0-1.9-4.87A7.041,7.041,0,0,0,16.59,2.319c-1.94-.109-7.753-.109-9.693,0A7.031,7.031,0,0,0,1.975,4.191a6.859,6.859,0,0,0-1.9,4.87c-.11,1.919-.11,7.67,0,9.589a6.837,6.837,0,0,0,1.9,4.869A7.05,7.05,0,0,0,6.9,25.4c1.94.109,7.753.109,9.693,0a7,7,0,0,0,4.922-1.877,6.882,6.882,0,0,0,1.9-4.87c.11-1.919.11-7.665,0-9.583ZM20.9,20.708a3.943,3.943,0,0,1-2.233,2.209c-1.546.607-5.216.467-6.925.467s-5.384.135-6.925-.467a3.943,3.943,0,0,1-2.233-2.209c-.613-1.53-.472-5.16-.472-6.85s-.136-5.326.472-6.85A3.943,3.943,0,0,1,4.821,4.8c1.546-.607,5.216-.467,6.925-.467S17.13,4.2,18.671,4.8A3.943,3.943,0,0,1,20.9,7.007c.613,1.53.472,5.16.472,6.85S21.518,19.184,20.9,20.708Z" transform="translate(9.63 5.138)" fill="#3d99dd" stroke="#e2dfdf" stroke-width="0.5"/>
    </g>
</svg>

