<svg viewBox="0 0 27 26" fill="none" xmlns="http://www.w3.org/2000/svg">
<path d="M26.7688 15.5312C26.768 15.1615 26.6931 14.7957 26.5485 14.4551C26.4038 14.1146 26.1924 13.8061 25.9265 13.5477C26.3093 13.0667 26.5184 12.4717 26.5202 11.8583C26.5211 11.4992 26.4499 11.1435 26.3109 10.8121C26.1719 10.4806 25.9679 10.18 25.7107 9.92785C25.1639 9.37929 24.4206 9.06858 23.6438 9.06376H17.6321L18.0163 6.57156C18.0639 6.25508 18.088 5.93553 18.0882 5.61554C18.0882 3.14785 16.4138 0.281823 14.2544 0.281823C13.6287 0.280228 13.0222 0.49712 12.5409 0.894659L12.319 1.07851L12.6333 5.17634C12.6459 5.34979 12.6313 5.52414 12.5902 5.69316C12.5487 5.86204 12.4793 6.02289 12.3847 6.16913L9.08302 12.2525L8.95975 12.3588C8.91937 12.0861 8.78182 11.8368 8.57215 11.6565C8.36248 11.4762 8.09464 11.3767 7.8174 11.3762H1.4256C1.11882 11.3762 0.824601 11.4974 0.607673 11.713C0.390744 11.9287 0.268875 12.2213 0.268875 12.5263V24.5338C0.269419 24.8384 0.391529 25.1304 0.608398 25.3457C0.825268 25.5609 1.11918 25.6818 1.4256 25.6818H7.82767C8.1341 25.6818 8.42801 25.5609 8.64488 25.3457C8.86175 25.1304 8.98386 24.8384 8.9844 24.5338V23.9209C9.7735 24.5449 10.7442 24.8989 11.7519 24.9301V24.9301H21.3694H21.4002C21.808 24.9084 22.2061 24.7981 22.5665 24.6071C22.9268 24.4161 23.2407 24.1489 23.4861 23.8243C23.7315 23.4997 23.9024 23.1256 23.9868 22.7284C24.0712 22.3311 24.067 21.9203 23.9746 21.5247C24.6512 21.2355 25.1853 20.6919 25.4601 20.0125C25.735 19.3332 25.7283 18.5733 25.4416 17.8988C25.849 17.651 26.1852 17.3029 26.4177 16.8882C26.6502 16.4734 26.7712 16.006 26.7688 15.5312V15.5312ZM7.86671 24.5379C7.86583 24.5457 7.8623 24.553 7.8567 24.5585C7.8511 24.5641 7.84376 24.5676 7.83589 24.5685H1.4256C1.41737 24.5681 1.40955 24.5648 1.40353 24.5592C1.39752 24.5535 1.39369 24.546 1.39273 24.5379V12.5304C1.39325 12.5221 1.39695 12.5143 1.40306 12.5086C1.40916 12.5029 1.41723 12.4997 1.4256 12.4997H7.82767C7.83569 12.5002 7.84325 12.5036 7.84892 12.5092C7.8546 12.5149 7.858 12.5224 7.85849 12.5304V24.5379H7.86671ZM24.4821 17.1123L23.7198 17.3473L24.2006 17.9826C24.3718 18.2096 24.4812 18.4767 24.5183 18.7581C24.5554 19.0395 24.5189 19.3256 24.4123 19.5888C24.3057 19.8521 24.1327 20.0835 23.9099 20.2609C23.6871 20.4383 23.4221 20.5556 23.1405 20.6014L22.3762 20.7281L22.7419 21.4185C22.8693 21.6624 22.9335 21.9341 22.9286 22.209C22.9237 22.4838 22.8498 22.7531 22.7137 22.9923C22.5775 23.2315 22.3835 23.4332 22.1491 23.5789C21.9147 23.7247 21.6474 23.81 21.3715 23.827H11.7704C11.0293 23.7968 10.3161 23.5376 9.73021 23.0854C9.57083 22.9445 9.39155 22.8275 9.19808 22.7382L8.99262 22.6442V13.8234L9.9932 12.9716L13.3709 6.7452C13.6739 6.2507 13.8126 5.67394 13.7675 5.09667L13.4963 1.60351C13.7294 1.46998 13.9936 1.39955 14.2626 1.39923C15.7214 1.39923 16.9706 3.71574 16.9706 5.61349C16.9702 5.87675 16.9503 6.13963 16.911 6.39997L16.3213 10.1832H23.6438C24.1207 10.1869 24.5767 10.3787 24.9115 10.7164C25.0639 10.8638 25.1851 11.0401 25.268 11.2348C25.3509 11.4295 25.3939 11.6387 25.3943 11.8501C25.3939 12.1042 25.3338 12.3546 25.219 12.5816C25.1041 12.8085 24.9376 13.0057 24.7328 13.1575L24.0527 13.6702L24.7964 14.089C25.0793 14.248 25.3093 14.4858 25.458 14.7731C25.6067 15.0604 25.6677 15.3847 25.6334 15.706C25.5991 16.0273 25.4711 16.3316 25.265 16.5815C25.059 16.8313 24.784 17.0159 24.4739 17.1123H24.4821Z" fill="#0380DB"/>
</svg>
