<svg width="45" height="45" viewBox="0 0 45 45" fill="none" xmlns="http://www.w3.org/2000/svg">
<circle cx="22.145" cy="22.145" r="21.645" stroke="#4475F6"/>
<path d="M13.645 14.2359C13.645 13.6298 13.859 13.1298 14.2869 12.7359C14.7148 12.342 15.2711 12.145 15.9558 12.145C16.6283 12.145 17.1723 12.3389 17.5881 12.7268C18.016 13.1268 18.2299 13.648 18.2299 14.2905C18.2299 14.8723 18.0221 15.3571 17.6064 15.745C17.1785 16.145 16.616 16.345 15.9191 16.345H15.9008C15.2283 16.345 14.6843 16.145 14.2686 15.745C13.8528 15.345 13.645 14.842 13.645 14.2359ZM13.8834 30.145V17.9995H17.9548V30.145H13.8834ZM20.2106 30.145H24.2821V23.3632C24.2821 22.9389 24.331 22.6117 24.4288 22.3814C24.6 21.9692 24.8598 21.6207 25.2082 21.3359C25.5567 21.0511 25.9938 20.9086 26.5195 20.9086C27.8889 20.9086 28.5736 21.8238 28.5736 23.6541V30.145H32.645V23.1814C32.645 21.3874 32.2171 20.0268 31.3612 19.0995C30.5054 18.1723 29.3744 17.7086 27.9684 17.7086C26.3911 17.7086 25.1624 18.3814 24.2821 19.7268V19.7632H24.2637L24.2821 19.7268V17.9995H20.2106C20.2351 18.3874 20.2473 19.5935 20.2473 21.6177C20.2473 23.642 20.2351 26.4844 20.2106 30.145Z" fill="#3D99DD"/>
</svg>
