<svg width="45" height="45" viewBox="0 0 45 45" fill="none" xmlns="http://www.w3.org/2000/svg">
<circle cx="22.145" cy="22.145" r="21.645" stroke="#4475F6"/>
<path id="Icon_awesome-envelope" data-name="Icon awesome-envelope" d="M20.429,9.942a.244.244,0,0,1,.394.2V18.92a2.009,2.009,0,0,1-1.952,2.06H1.952A2.009,2.009,0,0,1,0,18.92V10.148a.242.242,0,0,1,.395-.2c.911.747,2.119,1.7,6.267,4.875.858.661,2.306,2.051,3.75,2.043,1.452.013,2.928-1.408,3.754-2.043C18.314,11.641,19.518,10.689,20.429,9.942ZM10.412,15.487c.944.017,2.3-1.253,2.985-1.777,5.4-4.133,5.808-4.493,7.052-5.523a1.048,1.048,0,0,0,.374-.811V6.56A2.009,2.009,0,0,0,18.871,4.5H1.952A2.009,2.009,0,0,0,0,6.56v.815a1.055,1.055,0,0,0,.374.811c1.245,1.026,1.655,1.39,7.052,5.523C8.11,14.233,9.468,15.5,10.412,15.487Z" transform="translate(0.25 -4.25)" fill="#0a8bea" stroke="#e2dfdf" stroke-width="0.5"/>
</svg>

