<svg width="37" height="31" viewBox="0 0 37 31" fill="none" xmlns="http://www.w3.org/2000/svg">
<path d="M12.977 1.21699L12.1695 3.88674C12.0621 4.24173 11.7638 4.50084 11.4101 4.61238C7.54882 5.82997 5.81416 11.2165 5.42284 13.8778C5.76637 13.6676 6.99032 13.2359 9.13789 13.1905C11.8223 13.1338 14.6186 15.2903 15.7931 17.6738C16.9675 20.0573 17.0832 24.6729 14.6186 27.4916C12.3857 30.0454 9.52936 30.4994 7.4601 30.0454C5.39083 29.5914 1.86748 27.4349 0.4134 21.2491C-1.04068 15.0633 1.50932 7.49425 5.43129 3.09871C7.79178 0.453189 10.5262 -0.109884 12.309 0.0860065C12.8474 0.145164 13.1338 0.698549 12.977 1.21699Z" fill="#3D99DD"/>
<path d="M32.967 1.21699L32.1595 3.88674C32.0521 4.24173 31.7538 4.50084 31.4001 4.61238C27.5388 5.82997 25.8042 11.2165 25.4129 13.8778C25.7564 13.6676 26.9803 13.2359 29.1279 13.1905C31.8123 13.1338 34.6087 15.2903 35.7831 17.6738C36.9576 20.0573 37.0732 24.6729 34.6087 27.4916C32.3757 30.0454 29.5194 30.4994 27.4501 30.0454C25.3808 29.5914 21.8575 27.4349 20.4034 21.2491C18.9493 15.0633 21.4993 7.49425 25.4213 3.09871C27.7818 0.453189 30.5162 -0.109884 32.299 0.0860065C32.8374 0.145164 33.1238 0.698549 32.967 1.21699Z" fill="#3D99DD"/>
</svg>
