<svg width="144" height="16" viewBox="0 0 144 16" fill="none" xmlns="http://www.w3.org/2000/svg">
<rect x="6" width="4" height="16" fill="#B5ABAB"/>
<rect x="12" y="3.88501" width="4" height="12" fill="#B5ABAB"/>
<rect y="7.88501" width="4" height="8" fill="#B5ABAB"/>
<rect x="23" width="4" height="16" fill="#B5ABAB"/>
<rect x="29" y="3.88501" width="4" height="12" fill="#B5ABAB"/>
<rect x="17" y="7.88501" width="4" height="8" fill="#B5ABAB"/>
<rect x="43" width="4" height="16" fill="#B5ABAB"/>
<rect x="49" y="3.88501" width="4" height="12" fill="#B5ABAB"/>
<rect x="37" y="7.88501" width="4" height="8" fill="#B5ABAB"/>
<rect x="60" width="4" height="16" fill="#B5ABAB"/>
<rect x="66" y="3.88501" width="4" height="12" fill="#B5ABAB"/>
<rect x="54" y="7.88501" width="4" height="8" fill="#B5ABAB"/>
<rect x="80" width="4" height="16" fill="#B5ABAB"/>
<rect x="86" y="3.88501" width="4" height="12" fill="#B5ABAB"/>
<rect x="74" y="7.88501" width="4" height="8" fill="#B5ABAB"/>
<rect x="97" width="4" height="16" fill="#B5ABAB"/>
<rect x="103" y="3.88501" width="4" height="12" fill="#B5ABAB"/>
<rect x="91" y="7.88501" width="4" height="8" fill="#B5ABAB"/>
<rect x="117" width="4" height="16" fill="#B5ABAB"/>
<rect x="123" y="3.88501" width="4" height="12" fill="#B5ABAB"/>
<rect x="111" y="7.88501" width="4" height="8" fill="#B5ABAB"/>
<rect x="134" width="4" height="16" fill="#B5ABAB"/>
<rect x="140" y="3.88501" width="4" height="12" fill="#B5ABAB"/>
<rect x="128" y="7.88501" width="4" height="8" fill="#B5ABAB"/>
</svg>
