<svg id="Icon_open-rss" data-name="Icon open-rss" xmlns="http://www.w3.org/2000/svg" width="27.786" height="27.786" viewBox="0 0 27.786 27.786">
    <path id="Icon_open-rss-2" data-name="Icon open-rss" d="M3.473,0V3.473A20.811,20.811,0,0,1,24.312,24.312h3.473A24.339,24.339,0,0,0,3.473,0Zm0,6.946V10.42A13.889,13.889,0,0,1,17.366,24.312h3.473A17.372,17.372,0,0,0,3.473,6.946Zm0,6.946v3.473a6.922,6.922,0,0,1,6.946,6.946h3.473A10.45,10.45,0,0,0,3.473,13.893Zm0,6.946a3.473,3.473,0,1,0,3.473,3.473A3.483,3.483,0,0,0,3.473,20.839Z" fill="#d55a2d"/>
</svg>
