<svg xmlns="http://www.w3.org/2000/svg" width="15.626" height="17.251" viewBox="0 0 15.626 17.251">
    <g id="Icon_feather-share-2" data-name="Icon feather-share-2" transform="translate(0.5 0.5)">
        <path id="Path_726" data-name="Path 726" d="M27.375,5.438A2.438,2.438,0,1,1,24.938,3a2.438,2.438,0,0,1,2.438,2.438Z" transform="translate(-12.75 -3)" fill="none" stroke="#6a7072" stroke-linecap="round" stroke-linejoin="round" stroke-width="1"/>
        <path id="Path_727" data-name="Path 727" d="M9.375,15.938A2.438,2.438,0,1,1,6.938,13.5,2.438,2.438,0,0,1,9.375,15.938Z" transform="translate(-4.5 -7.812)" fill="none" stroke="#6a7072" stroke-linecap="round" stroke-linejoin="round" stroke-width="1"/>
        <path id="Path_728" data-name="Path 728" d="M27.375,26.438A2.438,2.438,0,1,1,24.938,24,2.438,2.438,0,0,1,27.375,26.438Z" transform="translate(-12.75 -12.624)" fill="none" stroke="#6a7072" stroke-linecap="round" stroke-linejoin="round" stroke-width="1"/>
        <path id="Path_729" data-name="Path 729" d="M12.885,20.265l5.55,3.234" transform="translate(-8.343 -10.913)" fill="none" stroke="#6a7072" stroke-linecap="round" stroke-linejoin="round" stroke-width="1"/>
        <path id="Path_730" data-name="Path 730" d="M18.427,9.765,12.885,13" transform="translate(-8.343 -6.1)" fill="none" stroke="#6a7072" stroke-linecap="round" stroke-linejoin="round" stroke-width="1"/>
    </g>
</svg>
