<svg xmlns="http://www.w3.org/2000/svg" width="32.06" height="29.243" viewBox="0 0 32.06 29.243">
    <path id="Icon_ionic-md-star-outline" data-name="Icon ionic-md-star-outline" d="M35.857,15.65,24.329,14.7l-4.5-10.2-4.5,10.2L3.8,15.65l8.744,7.275L9.92,33.743l9.907-5.735,9.906,5.735-2.62-10.819ZM21.139,25.921l-1.312-.76-1.312.759-4.76,2.756,1.26-5.2.347-1.431L14.2,21.083,10,17.584l5.542-.457L17.065,17l.6-1.352,2.165-4.9,2.164,4.9.6,1.352,1.524.126,5.543.457-4.205,3.5-1.157.962.347,1.431,1.26,5.2Z" transform="translate(-3.797 -4.5)" fill="currentColor"/>
</svg>
