<svg width="54" height="54" viewBox="0 0 54 54" fill="none" xmlns="http://www.w3.org/2000/svg">
<circle cx="27" cy="27" r="27" fill="#D3D1CF"/>
<path d="M42.5 25.3471C42.5 26.017 42.2546 26.608 41.7638 27.1202L40.2715 28.5978C39.7674 29.0969 39.1639 29.3465 38.4608 29.3465C37.7445 29.3465 37.1476 29.0969 36.6701 28.5978L30.8203 22.8254V41.695C30.8203 42.3779 30.5716 42.9329 30.0741 43.3597C29.5767 43.7866 28.9765 44 28.2734 44H25.7266C25.0235 44 24.4233 43.7866 23.9259 43.3597C23.4284 42.9329 23.1797 42.3779 23.1797 41.695V22.8254L17.3299 28.5978C16.8524 29.0969 16.2555 29.3465 15.5392 29.3465C14.8228 29.3465 14.2259 29.0969 13.7484 28.5978L12.2561 27.1202C11.752 26.6212 11.5 26.0301 11.5 25.3471C11.5 24.651 11.752 24.0534 12.2561 23.5543L25.2092 10.7289C25.6735 10.243 26.2704 10 27 10C27.7163 10 28.3199 10.243 28.8107 10.7289L41.7638 23.5543C42.2546 24.0666 42.5 24.6642 42.5 25.3471Z" fill="white"/>
</svg>
