<svg xmlns="http://www.w3.org/2000/svg" width="32.849" height="25.941" viewBox="0 0 32.849 25.941">
    <path id="Icon_metro-video-camera" data-name="Icon metro-video-camera" d="M14.139,10.6a4.82,4.82,0,1,1,4.82,4.82,4.82,4.82,0,0,1-4.82-4.82Zm-11.568,0a4.82,4.82,0,1,1,4.82,4.82A4.82,4.82,0,0,1,2.571,10.6Zm23.136,9.64V17.352a1.934,1.934,0,0,0-1.928-1.928H4.5a1.934,1.934,0,0,0-1.928,1.928v9.64A1.934,1.934,0,0,0,4.5,28.921h19.28a1.934,1.934,0,0,0,1.928-1.928V24.1l7.712,4.82v-13.5l-7.712,4.82Zm-3.856,4.82H6.427V19.28H21.851Z" transform="translate(-1.571 -4.784)" fill="none" stroke="#d6cfcf" stroke-width="2"/>
</svg>
