<svg xmlns="http://www.w3.org/2000/svg" width="51.739" height="43.117" viewBox="0 0 51.739 43.117">
    <path id="Icon_awesome-volume-up" data-name="Icon awesome-volume-up" d="M19.315,6.07l-7.992,7.99H2.156A2.155,2.155,0,0,0,0,16.215V29.15a2.156,2.156,0,0,0,2.156,2.156h9.167l7.992,7.99a2.157,2.157,0,0,0,3.68-1.524V7.594A2.157,2.157,0,0,0,19.315,6.07ZM40.273,1.482a2.174,2.174,0,1,0-2.386,3.634,20.987,20.987,0,0,1,0,35.135,2.173,2.173,0,1,0,2.386,3.633,25.335,25.335,0,0,0,0-42.4Zm2.843,21.2a16.585,16.585,0,0,0-7.7-14.034,2.147,2.147,0,0,0-2.975.67,2.181,2.181,0,0,0,.666,3,12.276,12.276,0,0,1,0,20.735,2.181,2.181,0,0,0-.666,3,2.151,2.151,0,0,0,2.975.67A16.584,16.584,0,0,0,43.115,22.683Zm-12.734-6.9a2.156,2.156,0,0,0-2.08,3.778,3.541,3.541,0,0,1,0,6.254,2.156,2.156,0,0,0,2.08,3.778,7.853,7.853,0,0,0,0-13.81Z" transform="translate(0 -1.125)" fill="#FFFAFA"/>
</svg>
