<svg xmlns="http://www.w3.org/2000/svg" width="30.441" height="25.654" viewBox="0 0 30.441 25.654">
    <g id="Group_1013" data-name="Group 1013" transform="translate(0.425 0.507)" opacity="0.997">
        <g id="Icon_ionic-ios-volume-high" data-name="Icon ionic-ios-volume-high">
            <path id="Path_716" data-name="Path 716" d="M16.194,10.242a1.2,1.2,0,0,0-.533-.124,1.238,1.238,0,0,0-.773.27L9.851,14.452H5.771a1.24,1.24,0,0,0-1.236,1.236v6.181a1.24,1.24,0,0,0,1.236,1.236H9.851l5.037,4.056a1.254,1.254,0,0,0,.773.27,1.2,1.2,0,0,0,.533-.124,1.236,1.236,0,0,0,.7-1.113V11.362A1.239,1.239,0,0,0,16.194,10.242Z" transform="translate(-4.535 -6.419)" fill="none" stroke="rgba(77,44,44,0.65)" stroke-width="0.85"/>
            <path id="Path_717" data-name="Path 717" d="M32.061,19.111A16.867,16.867,0,0,0,27.009,7.02.929.929,0,0,0,25.7,8.341a15.013,15.013,0,0,1,4.5,10.77h0a15.045,15.045,0,0,1-4.5,10.77.928.928,0,0,0-.008,1.313.906.906,0,0,0,.657.278A.926.926,0,0,0,27,31.2a16.83,16.83,0,0,0,5.061-12.091Z" transform="translate(-2.471 -6.752)" fill="none" stroke="rgba(77,44,44,0.65)" stroke-width="0.85"/>
            <path id="Path_718" data-name="Path 718" d="M27.531,18.823h0a12.548,12.548,0,0,0-3.616-8.877.929.929,0,0,0-1.321,1.306,10.725,10.725,0,0,1,3.083,7.579h0a10.725,10.725,0,0,1-3.083,7.579.931.931,0,0,0,.657,1.584.906.906,0,0,0,.657-.278,12.618,12.618,0,0,0,3.623-8.893Z" transform="translate(-2.777 -6.463)" fill="none" stroke="rgba(77,44,44,0.65)" stroke-width="0.85"/>
            <path id="Path_719" data-name="Path 719" d="M20.358,12.857a.929.929,0,1,0-1.321,1.306,6.183,6.183,0,0,1,1.777,4.373h0a6.21,6.21,0,0,1-1.777,4.373.931.931,0,0,0,.657,1.584.906.906,0,0,0,.657-.278,8.019,8.019,0,0,0,2.31-5.671h0A8,8,0,0,0,20.358,12.857Z" transform="translate(-3.129 -6.176)" fill="none" stroke="rgba(77,44,44,0.65)" stroke-width="0.85"/>
        </g>
    </g>
</svg>
