<svg xmlns="http://www.w3.org/2000/svg" width="36.987" height="26.151" viewBox="0 0 36.987 26.151">
  <g id="Group_6372" data-name="Group 6372" transform="translate(-532.485 -34.532)">
    <path id="Icon_simple-youtube" data-name="Icon simple-youtube" d="M35.243,9.307a4.51,4.51,0,0,0-3.132-3.132c-2.805-.752-14.094-.752-14.094-.752s-11.26-.015-14.094.752A4.51,4.51,0,0,0,.791,9.307a46.871,46.871,0,0,0-.783,8.708A46.87,46.87,0,0,0,.791,26.69a4.511,4.511,0,0,0,3.132,3.132c2.8.753,14.094.753,14.094.753s11.259,0,14.094-.753a4.511,4.511,0,0,0,3.132-3.132,46.871,46.871,0,0,0,.75-8.674,46.87,46.87,0,0,0-.75-8.707ZM14.413,23.4V12.612l9.4,5.4Z" transform="translate(532.978 29.608)" fill="none" stroke="#fff" stroke-width="1"/>
    <path id="Polygon_4" data-name="Polygon 4" d="M6.5,0,13,12H0Z" transform="matrix(0.017, 1, -1, 0.017, 556.863, 40.503)" fill="#ed6840"/>
  </g>
</svg>
